<svg width="20" height="20" viewBox="0 0 20 20" fill="none" xmlns="http://www.w3.org/2000/svg">
<path d="M18.475 8.22168C18.6112 7.90776 18.6279 7.55487 18.522 7.22948C18.4161 6.9041 18.1949 6.62865 17.9 6.45502L16.3 5.50502C16.281 5.49481 16.2644 5.48057 16.2515 5.4633C16.2385 5.44603 16.2295 5.42614 16.225 5.40502L15.8084 3.58002C15.7327 3.24739 15.539 2.95347 15.2632 2.75274C14.9874 2.55201 14.6481 2.45808 14.3084 2.48835L12.45 2.65502C12.4293 2.6599 12.4078 2.65941 12.3873 2.65357C12.3669 2.64773 12.3483 2.63675 12.3334 2.62168L10.925 1.38835C10.6678 1.16664 10.3396 1.04468 10 1.04468C9.66046 1.04468 9.3322 1.16664 9.07502 1.38835L7.66669 2.62168C7.65172 2.63675 7.63313 2.64773 7.6127 2.65357C7.59228 2.65941 7.5707 2.6599 7.55002 2.65502L5.69169 2.48835C5.35114 2.45658 5.01073 2.55034 4.73448 2.752C4.45823 2.95366 4.2652 3.24932 4.19169 3.58335L3.77502 5.40835C3.77055 5.42947 3.76152 5.44936 3.74857 5.46664C3.73562 5.48391 3.71905 5.49814 3.70002 5.50835L2.10002 6.45502C1.80516 6.62865 1.58394 6.9041 1.47804 7.22948C1.37213 7.55487 1.38884 7.90776 1.52502 8.22168L2.26669 9.93835C2.2829 9.97844 2.2829 10.0233 2.26669 10.0633L1.52502 11.78C1.38952 12.0927 1.3732 12.4443 1.47913 12.7682C1.58507 13.0921 1.80593 13.3661 2.10002 13.5383L3.70835 14.5C3.74224 14.5239 3.76601 14.5596 3.77502 14.6L4.19169 16.425C4.2659 16.7584 4.45923 17.0533 4.7354 17.2543C5.01158 17.4553 5.35161 17.5486 5.69169 17.5167L7.55002 17.3417C7.57128 17.3403 7.59261 17.3433 7.61267 17.3504C7.63274 17.3576 7.65112 17.3688 7.66669 17.3833L9.07502 18.6167C9.33281 18.8371 9.66084 18.9582 10 18.9582C10.3392 18.9582 10.6672 18.8371 10.925 18.6167L12.3334 17.3833C12.3489 17.3688 12.3673 17.3576 12.3874 17.3504C12.4074 17.3433 12.4288 17.3403 12.45 17.3417L14.3084 17.5167C14.6484 17.5486 14.9885 17.4553 15.2646 17.2543C15.5408 17.0533 15.7341 16.7584 15.8084 16.425L16.225 14.6C16.2295 14.5789 16.2385 14.559 16.2515 14.5417C16.2644 14.5245 16.281 14.5102 16.3 14.5L17.9 13.5417C18.1941 13.3694 18.415 13.0955 18.5209 12.7715C18.6268 12.4476 18.6105 12.0961 18.475 11.7833L17.7334 10.0667C17.7171 10.0266 17.7171 9.98177 17.7334 9.94168L18.475 8.22168ZM13.7417 8.32168L9.60835 12.555C9.48717 12.6712 9.32623 12.7368 9.15835 12.7383C9.02682 12.7396 8.89834 12.6987 8.79169 12.6217L6.34169 10.8717C6.20687 10.7744 6.1162 10.6276 6.08964 10.4635C6.06307 10.2994 6.10278 10.1315 6.20002 9.99668C6.29727 9.86186 6.44409 9.7712 6.60818 9.74463C6.77228 9.71806 6.9402 9.75777 7.07502 9.85502L9.08335 11.2967L12.85 7.44668C12.9072 7.38768 12.9755 7.34062 13.0511 7.30823C13.1266 7.27583 13.2078 7.25875 13.2899 7.25798C13.3721 7.2572 13.4536 7.27275 13.5297 7.30371C13.6058 7.33467 13.6751 7.38044 13.7334 7.43835C13.8507 7.55486 13.9174 7.71294 13.9189 7.8783C13.9205 8.04367 13.8568 8.20297 13.7417 8.32168Z" fill="#8E7754"/>
</svg>
