<svg width="20" height="20" viewBox="0 0 20 20" fill="none" xmlns="http://www.w3.org/2000/svg">
<path fill-rule="evenodd" clip-rule="evenodd" d="M16.6667 4.78891C16.8251 4.80373 16.9723 4.87716 17.0795 4.99481C17.1866 5.11247 17.246 5.26588 17.246 5.42502C17.246 5.58416 17.1866 5.73758 17.0795 5.85523C16.9723 5.97288 16.8251 6.04631 16.6667 6.06113C16.5781 6.06942 16.4888 6.05913 16.4045 6.03093C16.3202 6.00272 16.2427 5.95723 16.1769 5.89736C16.1112 5.83748 16.0587 5.76455 16.0228 5.68321C15.9868 5.60188 15.9683 5.51394 15.9683 5.42502C15.9683 5.3361 15.9868 5.24817 16.0228 5.16683C16.0587 5.0855 16.1112 5.01256 16.1769 4.95269C16.2427 4.89281 16.3202 4.84732 16.4045 4.81912C16.4888 4.79092 16.5781 4.78063 16.6667 4.78891Z" fill="#8E7754"/>
<path fill-rule="evenodd" clip-rule="evenodd" d="M2.87229 15.3222C2.74593 15.3222 2.6224 15.2847 2.51734 15.2145C2.41228 15.1443 2.33039 15.0446 2.28203 14.9278C2.23368 14.8111 2.22102 14.6826 2.24567 14.5587C2.27033 14.4347 2.33117 14.3209 2.42052 14.2316C2.50988 14.1422 2.62371 14.0814 2.74765 14.0567C2.87158 14.0321 3.00004 14.0447 3.11678 14.0931C3.23352 14.1414 3.3333 14.2233 3.4035 14.3284C3.47371 14.4334 3.51118 14.557 3.51118 14.6833C3.51118 14.8528 3.44387 15.0153 3.32405 15.1351C3.20424 15.2549 3.04173 15.3222 2.87229 15.3222Z" fill="#8E7754"/>
<path fill-rule="evenodd" clip-rule="evenodd" d="M13.0502 6.6666C12.3894 6.05048 11.5544 5.65361 10.6593 5.53029C9.76431 5.40698 8.85304 5.56325 8.05024 5.97771C6.38357 6.87216 5.4169 9.07216 5.63357 11.761C4.69 11.3035 3.8373 10.6786 3.1169 9.9166C1.23357 7.91105 0.611346 5.55549 1.52801 4.08327C2.44468 2.61105 4.90024 1.92771 6.76135 3.93327C7.3669 1.27216 9.82246 0.599937 11.3613 1.44994C12.778 2.22216 13.4336 4.26105 13.0502 6.6666Z" fill="#8E7754"/>
<path fill-rule="evenodd" clip-rule="evenodd" d="M16.906 15.5555C15.556 17.061 12.8893 18.2221 10.7338 18.8888C9.38932 17.4277 7.87265 15.4499 7.27265 13.6388C6.40598 11.311 6.84487 7.91102 8.63376 7.0888C9.32412 6.74076 10.1192 6.66173 10.8646 6.86706C11.6099 7.0724 12.2524 7.54744 12.6671 8.19991C12.9384 8.61753 13.127 9.08337 13.2227 9.57213C13.3115 9.47769 13.4115 9.39436 13.4838 9.31102C15.3004 7.64436 17.5838 8.29436 18.4838 9.72769C19.3838 11.161 18.7615 13.5444 16.906 15.5555Z" fill="#8E7754"/>
<path fill-rule="evenodd" clip-rule="evenodd" d="M15.7501 1.71104C15.7498 1.65963 15.765 1.60934 15.7938 1.56672C15.8225 1.5241 15.8634 1.49114 15.9112 1.47215C15.9588 1.45078 16.0119 1.44518 16.0629 1.45618C16.1139 1.46717 16.16 1.49418 16.1945 1.53326L16.4445 1.81104C16.4694 1.83772 16.4995 1.85892 16.533 1.87328C16.5664 1.88763 16.6026 1.89481 16.639 1.89437H17.0112C17.0634 1.89134 17.1152 1.90473 17.1593 1.93266C17.2035 1.96059 17.2378 2.00166 17.2574 2.05009C17.277 2.09852 17.281 2.15188 17.2687 2.20267C17.2564 2.25346 17.2286 2.29913 17.189 2.33326L16.9168 2.58326C16.8892 2.60736 16.8674 2.63734 16.853 2.671C16.8386 2.70465 16.8319 2.74112 16.8334 2.7777V3.14993C16.8346 3.20196 16.8198 3.25311 16.7912 3.29654C16.7625 3.33996 16.7212 3.37359 16.6729 3.39292C16.6245 3.41225 16.5715 3.41636 16.5207 3.40471C16.47 3.39305 16.424 3.36619 16.389 3.3277L16.139 3.05548C16.1149 3.02791 16.0849 3.00611 16.0513 2.99169C16.0176 2.97727 15.9811 2.97059 15.9445 2.97215H15.5723C15.5201 2.97279 15.469 2.95779 15.4254 2.92907C15.3818 2.90036 15.3479 2.85924 15.3279 2.81104C15.308 2.76276 15.3038 2.70948 15.3157 2.65867C15.3277 2.60785 15.3552 2.56206 15.3945 2.5277L15.6668 2.2777C15.6943 2.2536 15.7161 2.22362 15.7306 2.18996C15.745 2.15631 15.7517 2.11984 15.7501 2.08326C15.7501 1.99437 15.7501 1.85548 15.7501 1.71104Z" fill="#8E7754"/>
<path fill-rule="evenodd" clip-rule="evenodd" d="M5.36115 17.4555C5.34274 17.504 5.31003 17.5457 5.26737 17.5751C5.2247 17.6046 5.1741 17.6203 5.12226 17.6203C5.07043 17.6203 5.01983 17.6046 4.97716 17.5751C4.9345 17.5457 4.90179 17.504 4.88338 17.4555L4.7556 17.1055C4.72691 17.038 4.67313 16.9842 4.6056 16.9555L4.2556 16.8278C4.20715 16.8094 4.16544 16.7766 4.13601 16.734C4.10658 16.6913 4.09082 16.6407 4.09082 16.5889C4.09082 16.537 4.10658 16.4864 4.13601 16.4438C4.16544 16.4011 4.20715 16.3684 4.2556 16.35L4.6056 16.2222C4.64007 16.2097 4.67137 16.1898 4.6973 16.1639C4.72322 16.138 4.74312 16.1067 4.7556 16.0722C4.78893 15.9889 4.83338 15.8611 4.88338 15.7278C4.90179 15.6793 4.9345 15.6376 4.97716 15.6082C5.01983 15.5787 5.07043 15.563 5.12226 15.563C5.1741 15.563 5.2247 15.5787 5.26737 15.6082C5.31003 15.6376 5.34274 15.6793 5.36115 15.7278C5.41115 15.8611 5.46115 15.9889 5.48893 16.0722C5.50141 16.1067 5.52131 16.138 5.54723 16.1639C5.57315 16.1898 5.60446 16.2097 5.63893 16.2222L5.98893 16.35C6.03738 16.3684 6.07909 16.4011 6.10852 16.4438C6.13795 16.4864 6.15371 16.537 6.15371 16.5889C6.15371 16.6407 6.13795 16.6913 6.10852 16.734C6.07909 16.7766 6.03738 16.8094 5.98893 16.8278L5.63893 16.9555C5.57139 16.9842 5.51762 17.038 5.48893 17.1055C5.46115 17.1944 5.41115 17.3222 5.36115 17.4555Z" fill="#8E7754"/>
</svg>
