<svg width="20" height="20" viewBox="0 0 20 20" fill="none" xmlns="http://www.w3.org/2000/svg">
<path d="M17.1131 10.6765H15.5664C15.7241 11.1082 15.8102 11.574 15.8102 12.0595V17.9052C15.8102 18.1076 15.775 18.3019 15.7109 18.4826H18.2679C19.2231 18.4826 20.0002 17.7055 20.0002 16.7504V13.5636C20.0002 11.9717 18.7051 10.6765 17.1131 10.6765Z" fill="#8E7754"/>
<path d="M4.19005 12.0595C4.19005 11.5739 4.27618 11.1082 4.43384 10.6765H2.88712C1.29516 10.6765 0 11.9717 0 13.5636V16.7504C0 17.7056 0.777072 18.4827 1.73227 18.4827H4.28938C4.22528 18.3019 4.19005 18.1076 4.19005 17.9052V12.0595Z" fill="#8E7754"/>
<path d="M11.7679 9.17236H8.23184C6.63989 9.17236 5.34473 10.4675 5.34473 12.0595V17.9052C5.34473 18.2241 5.60324 18.4826 5.92215 18.4826H14.0776C14.3965 18.4826 14.655 18.2241 14.655 17.9052V12.0595C14.655 10.4675 13.3598 9.17236 11.7679 9.17236Z" fill="#8E7754"/>
<path d="M9.99995 1.51709C8.08541 1.51709 6.52783 3.07467 6.52783 4.98924C6.52783 6.28788 7.24459 7.42206 8.30311 8.01753C8.80518 8.29996 9.38401 8.46136 9.99995 8.46136C10.6159 8.46136 11.1947 8.29996 11.6968 8.01753C12.7553 7.42206 13.4721 6.28784 13.4721 4.98924C13.4721 3.07471 11.9145 1.51709 9.99995 1.51709Z" fill="#8E7754"/>
<path d="M3.90284 4.75342C2.471 4.75342 1.30615 5.91826 1.30615 7.3501C1.30615 8.78194 2.471 9.94679 3.90284 9.94679C4.26604 9.94679 4.6119 9.87155 4.92608 9.73632C5.46929 9.50245 5.91718 9.08847 6.19433 8.56991C6.38886 8.20596 6.49952 7.79077 6.49952 7.3501C6.49952 5.9183 5.33468 4.75342 3.90284 4.75342Z" fill="#8E7754"/>
<path d="M16.0972 4.75342C14.6653 4.75342 13.5005 5.91826 13.5005 7.3501C13.5005 7.79081 13.6112 8.206 13.8057 8.56991C14.0828 9.0885 14.5307 9.50249 15.0739 9.73632C15.3881 9.87155 15.734 9.94679 16.0972 9.94679C17.529 9.94679 18.6939 8.78194 18.6939 7.3501C18.6939 5.91826 17.529 4.75342 16.0972 4.75342Z" fill="#8E7754"/>
</svg>
