<svg width="20" height="20" viewBox="0 0 20 20" fill="none" xmlns="http://www.w3.org/2000/svg">
<path d="M15.0056 0C15.0056 0 13.3601 1.59647 11.5805 2.24012C-1.59833 7.00693 3.95972 16.2961 4.14105 16.3267C4.14105 16.3267 4.88005 15.0398 5.87833 14.3058C12.213 9.64887 13.5005 4.28854 13.5005 4.28854C13.5005 4.28854 12.079 10.7387 6.44337 14.7522C5.19866 15.6382 4.35585 17.8197 3.99908 20C3.99908 20 4.88139 19.6435 5.2608 19.547C5.40875 18.5815 5.71808 17.657 6.24105 16.8311C14.1175 17.7689 16.6972 11.4221 17.0342 9.20907C17.8296 3.98229 15.0056 0 15.0056 0Z" fill="#8E7754"/>
</svg>
